<?xml version="1.0" encoding="UTF-8" standalone="no"?>
<svg xmlns="http://www.w3.org/2000/svg" xmlns:xlink="http://www.w3.org/1999/xlink" style="isolation:isolate" viewBox="0 0 320 320" width="320pt" height="320pt"><defs><clipPath id="_clipPath_e3wrAEctNyNfAxWBydRI0iSybNrGbw7e"><rect width="320" height="320"/></clipPath></defs><g clip-path="url(#_clipPath_e3wrAEctNyNfAxWBydRI0iSybNrGbw7e)"><path d=" M 192 160 C 192 177.661 177.661 192 160 192 C 142.339 192 128 177.661 128 160 C 128 142.339 142.339 128 160 128 C 177.661 128 192 142.339 192 160 Z " fill="rgb(0,0,0)"/><path d=" M 160.03 96 C 151.54 96.01 143.39 92.64 137.39 86.65 C 131.39 80.65 128.01 72.51 128 64.03 C 127.99 55.54 131.36 47.39 137.35 41.39 C 143.35 35.39 151.49 32.01 159.97 32 C 177.1 31.99 194.05 35.41 209.82 42.08 C 225.02 48.52 238.83 57.83 250.5 69.5 C 262.17 81.17 271.48 94.98 277.92 110.18 C 284.58 125.94 288.01 142.89 288 160 C 288.01 177.11 284.58 194.06 277.92 209.82 C 271.48 225.02 262.17 238.83 250.5 250.5 C 238.83 262.17 225.02 271.48 209.82 277.92 C 194.05 284.59 177.1 288.01 159.97 288 C 151.49 287.99 143.35 284.61 137.35 278.61 C 131.36 272.61 127.99 264.46 128 255.97 C 128.01 247.49 131.39 239.35 137.39 233.35 C 143.39 227.36 151.54 223.99 160.03 224 C 168.56 224.01 177.02 222.3 184.88 218.98 C 192.49 215.75 199.4 211.09 205.24 205.24 C 211.09 199.4 215.75 192.49 218.98 184.88 C 222.3 177.01 224.01 168.55 224 160 C 224.01 151.45 222.3 142.99 218.98 135.12 C 215.75 127.51 211.09 120.6 205.24 114.76 C 199.4 108.91 192.49 104.25 184.88 101.02 C 177.02 97.7 168.56 95.99 160.03 96 Z " fill="rgb(0,0,0)"/><path d=" M 104.72 192.25 C 109.01 199.57 110.22 208.3 108.08 216.51 C 105.94 224.72 100.62 231.75 93.3 236.04 C 85.98 240.33 77.25 241.54 69.04 239.4 C 60.83 237.26 53.8 231.94 49.51 224.62 C 43.88 215.02 39.53 204.73 36.58 194 C 33.53 182.92 31.99 171.49 32 160 C 31.99 148.51 33.53 137.08 36.58 126 C 39.53 115.27 43.88 104.98 49.51 95.38 C 53.8 88.06 60.83 82.74 69.04 80.6 C 77.25 78.46 85.98 79.67 93.3 83.96 C 100.62 88.25 105.94 95.28 108.08 103.49 C 110.22 111.7 109.01 120.43 104.72 127.75 C 101.92 132.52 99.76 137.64 98.29 142.98 C 96.76 148.53 95.99 154.25 96 160 C 95.99 165.75 96.76 171.47 98.29 177.02 C 99.76 182.36 101.92 187.48 104.72 192.25 Z " fill="rgb(0,0,0)"/></g></svg>